<svg width="24" height="24" viewBox="0 0 24 24" fill="none" xmlns="http://www.w3.org/2000/svg">
<path d="M3.9 2.4C3.072 2.4 2.4 3.072 2.4 3.9V7.2C2.4 7.51826 2.27357 7.82348 2.04853 8.04853C1.82348 8.27357 1.51826 8.4 1.2 8.4C0.88174 8.4 0.576515 8.27357 0.351472 8.04853C0.126428 7.82348 0 7.51826 0 7.2V3.9C0 2.86566 0.410892 1.87368 1.14228 1.14228C1.87368 0.410892 2.86566 0 3.9 0H7.2C7.51826 0 7.82348 0.126428 8.04853 0.351472C8.27357 0.576515 8.4 0.88174 8.4 1.2C8.4 1.51826 8.27357 1.82348 8.04853 2.04853C7.82348 2.27357 7.51826 2.4 7.2 2.4H3.9ZM3.9 21.6C3.072 21.6 2.4 20.928 2.4 20.1V16.8C2.4 16.4817 2.27357 16.1765 2.04853 15.9515C1.82348 15.7264 1.51826 15.6 1.2 15.6C0.88174 15.6 0.576515 15.7264 0.351472 15.9515C0.126428 16.1765 0 16.4817 0 16.8V20.1C0 20.6122 0.100876 21.1193 0.29687 21.5925C0.492863 22.0656 0.780135 22.4956 1.14228 22.8577C1.50443 23.2199 1.93437 23.5071 2.40753 23.7031C2.8807 23.8991 3.38784 24 3.9 24H7.2C7.51826 24 7.82348 23.8736 8.04853 23.6485C8.27357 23.4235 8.4 23.1183 8.4 22.8C8.4 22.4817 8.27357 22.1765 8.04853 21.9515C7.82348 21.7264 7.51826 21.6 7.2 21.6H3.9ZM21.6 3.9C21.6 3.072 20.928 2.4 20.1 2.4H16.8C16.4817 2.4 16.1765 2.27357 15.9515 2.04853C15.7264 1.82348 15.6 1.51826 15.6 1.2C15.6 0.88174 15.7264 0.576515 15.9515 0.351472C16.1765 0.126428 16.4817 0 16.8 0H20.1C20.6122 0 21.1193 0.100876 21.5925 0.29687C22.0656 0.492863 22.4956 0.780135 22.8577 1.14228C23.2199 1.50443 23.5071 1.93437 23.7031 2.40753C23.8991 2.8807 24 3.38784 24 3.9V7.2C24 7.51826 23.8736 7.82348 23.6485 8.04853C23.4235 8.27357 23.1183 8.4 22.8 8.4C22.4817 8.4 22.1765 8.27357 21.9515 8.04853C21.7264 7.82348 21.6 7.51826 21.6 7.2V3.9ZM20.1 21.6C20.928 21.6 21.6 20.928 21.6 20.1V16.8C21.6 16.4817 21.7264 16.1765 21.9515 15.9515C22.1765 15.7264 22.4817 15.6 22.8 15.6C23.1183 15.6 23.4235 15.7264 23.6485 15.9515C23.8736 16.1765 24 16.4817 24 16.8V20.1C24 20.6122 23.8991 21.1193 23.7031 21.5925C23.5071 22.0656 23.2199 22.4956 22.8577 22.8577C22.4956 23.2199 22.0656 23.5071 21.5925 23.7031C21.1193 23.8991 20.6122 24 20.1 24H16.8C16.4817 24 16.1765 23.8736 15.9515 23.6485C15.7264 23.4235 15.6 23.1183 15.6 22.8C15.6 22.4817 15.7264 22.1765 15.9515 21.9515C16.1765 21.7264 16.4817 21.6 16.8 21.6H20.1ZM6 12C6 11.6817 6.12643 11.3765 6.35147 11.1515C6.57652 10.9264 6.88174 10.8 7.2 10.8H16.8C17.1183 10.8 17.4235 10.9264 17.6485 11.1515C17.8736 11.3765 18 11.6817 18 12C18 12.3183 17.8736 12.6235 17.6485 12.8485C17.4235 13.0736 17.1183 13.2 16.8 13.2H7.2C6.88174 13.2 6.57652 13.0736 6.35147 12.8485C6.12643 12.6235 6 12.3183 6 12Z" fill="#E7EEFF"/>
</svg>
