<svg width="110" height="31" viewBox="0 0 110 31" fill="none" xmlns="http://www.w3.org/2000/svg">
<path d="M46.9512 1.48C46.6898 1.48 46.5592 1.34667 46.5592 1.08C46.5592 0.818666 46.6898 0.688 46.9512 0.688C47.2072 0.688 47.3352 0.818666 47.3352 1.08C47.3352 1.34667 47.2072 1.48 46.9512 1.48ZM47.9672 1.48C47.7058 1.48 47.5752 1.34667 47.5752 1.08C47.5752 0.818666 47.7058 0.688 47.9672 0.688C48.2232 0.688 48.3512 0.818666 48.3512 1.08C48.3512 1.34667 48.2232 1.48 47.9672 1.48ZM49.4552 5.352H49.9832V6H49.3752C48.8258 6 48.4312 5.79733 48.1912 5.392C47.9352 5.63733 47.6178 5.76 47.2392 5.76C46.7698 5.76 46.3965 5.584 46.1192 5.232C45.8898 4.93333 45.7752 4.568 45.7752 4.136C45.7752 3.61867 45.9325 3.20267 46.2472 2.888C46.5138 2.616 46.8392 2.48 47.2232 2.48C47.5165 2.48 47.7698 2.55467 47.9832 2.704V2.36L48.6792 1.992V4.552C48.6792 5.08533 48.9378 5.352 49.4552 5.352ZM47.9832 3.448C47.7858 3.22933 47.5432 3.12 47.2552 3.12C47.0205 3.12 46.8285 3.216 46.6792 3.408C46.5298 3.59467 46.4552 3.84 46.4552 4.144C46.4552 4.45333 46.5298 4.70133 46.6792 4.888C46.8285 5.07467 47.0232 5.168 47.2632 5.168C47.5618 5.168 47.8072 5.04533 47.9992 4.8C47.9885 4.704 47.9832 4.62933 47.9832 4.576V3.448ZM49.5061 6V5.352H49.9301C50.4848 5.352 50.7621 5.06133 50.7621 4.48V1.208L51.4581 0.84V4.488C51.4581 4.96267 51.3168 5.33867 51.0341 5.616C50.7674 5.872 50.4181 6 49.9861 6H49.5061ZM54.2878 6C53.8238 6 53.4664 5.85067 53.2158 5.552C53.0024 5.296 52.8958 4.97067 52.8958 4.576V1.208L53.5838 0.84V4.552C53.5838 5.08533 53.8451 5.352 54.3678 5.352H54.8958V6H54.2878ZM59.6283 5.352H60.1483V6H59.6203C59.1883 6 58.8417 5.952 58.5803 5.856C58.319 5.75467 58.0763 5.57867 57.8523 5.328C57.1803 5.776 56.3963 6 55.5003 6H54.4123V5.352H55.5083C56.591 5.352 57.447 4.99467 58.0763 4.28C57.6337 3.464 57.095 3.056 56.4603 3.056C56.0283 3.056 55.583 3.28533 55.1243 3.744V3.104C55.5723 2.65067 56.047 2.424 56.5483 2.424C56.959 2.424 57.3563 2.57333 57.7403 2.872C58.1243 3.16533 58.463 3.58667 58.7563 4.136V4.488C58.591 4.696 58.4337 4.864 58.2843 4.992C58.5723 5.232 59.0203 5.352 59.6283 5.352ZM59.6702 6V5.352H60.0942C60.6488 5.352 60.9262 5.06133 60.9262 4.48V1.208L61.6222 0.84V4.488C61.6222 4.96267 61.4808 5.33867 61.1982 5.616C60.9315 5.872 60.5822 6 60.1502 6H59.6702ZM63.0598 6V1.208L63.7478 0.84V6H63.0598Z" fill="#6B7280"/>
<rect x="53.5" y="12" width="3" height="3" rx="1.5" fill="#12A150"/>
<g clip-path="url(#clip0_102_4600)">
<rect y="23" width="110" height="8" rx="4" fill="#E7E9EF"/>
<rect y="23" width="110" height="8" rx="4" fill="#12A150"/>
</g>
<defs>
<clipPath id="clip0_102_4600">
<rect y="23" width="110" height="8" rx="4" fill="white"/>
</clipPath>
</defs>
</svg>
